<svg version="1.0" id="Слой_1" x="0" y="0" viewBox="0 0 225 275" xml:space="preserve" xmlns="http://www.w3.org/2000/svg"><style type="text/css" id="style1">.st0{fill:#e60023}.st1{fill:#ed771b}.st2{fill:#fff}.st5{fill:#b4001e}</style><switch id="switch27" transform="translate(-847.975 -331.1)"><g id="g27"><g id="g26"><g id="g25"><path class="st0" d="M1071 492.7c-.2-21-7-42.2-18.4-59.3-33.1-55.6-82.8-47.8-82.8-100.3 0 0-79.2 38-79.2 111.8 0 0-14.1-7.2-14.1-23.6-2.8 3.7-5.5 7.7-8.1 12.1-11.5 17.2-18.4 38.6-18.4 59.7-1.3 59.9 48.5 112.4 110.6 112 61.5 0 111.3-50.3 110.6-111.8-.3-.2-.2-.4-.2-.6z" id="path6"/><path class="st1" d="M942.4 499.3c-8.7-12.5-37.4-3.8-38.7 10.6 10.4-8.1 35.2-4.4 38.7-10.6z" id="path7"/><path class="st1" d="M928.2 510.8c3.5.5 6.2.7 8.4.2 5.3-1.3 5.9-6.7 6.1-7.5-5.7 5.2-24.5.9-34.6 7.4 10-2.1 14.7-.8 20.1-.1z" id="path8"/><path class="st0" d="M951.7 531.3c0-4.6-2.5-7.9-5.2-11.5-1.7-2.2-3.4-4.5-4.6-7.1-1 .9-2.3 1.7-4.1 2.3-1.8.5-3.6.6-5.5.5-.6 1.5-1.4 2.9-2.3 4.4-1.9 3.1-3.9 6.4-3.9 11.5 0 8 4.8 12.8 12.8 12.8 7-.1 12.8-5.8 12.8-12.9z" id="path9"/><path class="st0" d="M1008.6 427.2c-.2-.2-3.4-3.3-13-2.8-12.8.7-25.3 9.6-25.3 9.6s-.2-8.6 5.4-15.1c2.5-3 5.4-5.5 8.7-7.5 0 0-8.7-1.1-21.4 7-11.2 7.2-21.4 21.4-21.4 21.4s-1.6-14.3 6.9-27.4c0 0-19.3 7.2-24 22.3-4.7 14.9 2.6 30 2.6 30 .7-1 1.4-2 2.2-3a53.75 53.75 0 0 1 35.7-20.5c10-1.3 19.9.2 28.8 4.3 1.4.5 2.8.8 4.3.8 6.9 0 12.5-5.6 12.5-12.5-.1-2.4-.8-4.7-2-6.6z" id="path10"/><path class="st2" d="M1002.2 455.3a49.35 49.35 0 0 0-36.7-10 49.3 49.3 0 0 0-33 18.9c-6.1 7.8-9.2 17.1-10.2 26.2 4-1.1 29.9-2.4 23.4 18.7 0 0 .8 3 4.6 8 3 3.9 5.6 8.2 5.6 14.2 0 9.6-4.5 18.1-13 24.5-.7.6-1.5 1.1-2.3 1.6l-2.4 1.5c9.8-4.8 18.4-11.7 28.2-20.1 0 0-3.6 12.2-1.1 17.2 7.6-12.8 18.1-25.8 32.5-29.8 0 0-7.2 12.5-4.3 19.6 12.2-20.7 32.6-20.6 39.3-48a91.8 91.8 0 0 0-30.6-42.5z" id="path11"/><path class="st0" d="M1001.1 501.9c0 4.6-3.7 8.4-8.4 8.4-4.6 0-8.4-3.7-8.4-8.4 0-4.6 3.7-8.4 8.4-8.4 4.6 0 8.4 3.7 8.4 8.4z" id="path12"/><path d="M963.6 483.6a2.9 2.9 0 1 1 2.9-2.9c.1 1.6-1.2 2.9-2.9 2.9zm20.5-8.7c10.7-4.1 9.3-15.1 9.3-15.1-5.9 10.3-15.7 10.9-15.7 10.9 5.3-7.2 1.7-14.9 1.7-14.9-1.7 8.4-8.4 13.5-8.4 13.5 2.2-7-4-13.1-4-13.1.9 5.4-1.7 12.6-6.1 15.1 0-7.5-5.7-9.7-5.7-9.7 5.8 15.2-6.4 13.7-6.4 29.3 0 0 4.5-8.2 9.1-11.3-.2.8-.3 1.6-.3 2.5a11.6 11.6 0 0 0 23.2 0c0-.7-.1-1.3-.2-1.9 14.9 2.1 18.3-8.9 18.3-8.9-3.7 3.6-14.4 4-14.8 3.6z" id="path13"/><path d="M1032.4 557.3c3.4-9.7 5.2-20 5.1-30.4-8.4 23.5-24.3 23.5-32.4 32 .2-4.2 5.5-14 5.5-14a57.53 57.53 0 0 0-25.6 22.4c1.5-12-1.2-19.3-1.2-19.3-5.7 12.3-18 17.9-30.4 21.9 2.6-9.5 1.7-15.6 1.7-15.6-11.3 15.1-41.3 16.2-58.5 11.9h-.1a113 113 0 0 1-8.1-1.2s-3.2-.7-6.6-2c13.8 6.8 25.6 12.9 64.4 9.8 0 0-5.2 6.5-4.7 15.9 12.6-4.1 24.4-7.1 30.2-19.5 0 0 2.8 7.4 1.2 19.5 6.1-9.9 15-18 25.9-22.7 0 0-5.3 9.9-5.6 14.2 7.2-7.7 27.8-6.5 39.2-22.9z" id="path14" style="fill:#ff7800"/><path d="M1037.5 526.9c0-3.7-.3-7.5-.7-11.2-.8-6.1-2.2-12.1-4.1-17.8-6.7 27.4-27.1 27.3-39.3 48-2.8-7.1 4.3-19.6 4.3-19.6-14.5 3.9-24.9 17-32.5 29.8-2.5-5.1 1.1-17.2 1.1-17.2-9.8 8.3-18.4 15.3-28.2 20.1-11.1 6.4-26.1 8.9-41.6 7.3h.1c17.2 4.3 47.2 3.2 58.5-11.9 0 0 .9 6.2-1.7 15.6 12.5-4 24.7-9.7 30.4-21.9 0 0 2.7 7.3 1.2 19.3 6-9.8 14.9-17.7 25.6-22.4 0 0-5.3 9.8-5.5 14 8-8.5 24-8.6 32.4-32.1z" id="path15" style="fill:#fee215"/><path class="st2" d="M998.6 421.3h-1.1c-9.5 0-21.7 6.5-27.2 12.6 0 0 12.5-9 25.3-9.6 9.7-.5 12.9 2.6 13 2.8-2.1-3.3-5.8-5.6-10-5.8z" id="path16"/><path class="st2" d="M953.7 422.2c-4.6 5.4-9.3 10.7-12.1 17.7 0 0 10.1-14.2 21.4-21.4 12.7-8.2 21.4-7 21.4-7a31.79 31.79 0 0 0-30.7 10.7z" id="path17"/><path class="st2" d="M927 464.7s-7.2-15.1-2.6-30c4.7-15.1 24-22.3 24-22.3-8.2.9-15.7 4.8-21.2 11.2-10 12-10 29.3-.2 41.1z" id="path18"/><path class="st2" d="M928.8 532.8c-.9-8.7 1.4-10.1 3.4-17.4-.6 1.5-1.4 2.9-2.3 4.4-1.9 3.1-3.9 6.4-3.9 11.5 0 7.8 4.5 12.5 12 12.8-.9-.3-8.3-3.1-9.2-11.3z" id="path19"/><path class="st2" d="M914.3 499.3c10.6-5.7 21.1-4.3 23.9-3.8-11.4-6.4-33.3 1.9-34.4 14.4-.1 0 2.2-6.1 10.5-10.6z" id="path20"/><path d="M993.8 445.5c-8.9-4-18.8-5.5-28.8-4.3-14.3 1.8-27 9.1-35.7 20.5-.8 1-1.5 2-2.2 3a31.9 31.9 0 0 1 .3-41.1c5.4-6.4 13-10.4 21.2-11.2-8.5 13.1-6.9 27.4-6.9 27.4 2.8-6.9 7.5-12.2 12.1-17.7 7.6-9 19.4-13 30.7-10.8-3.2 2-6.1 4.5-8.7 7.5-5.6 6.5-5.4 15.1-5.4 15.1 5.6-6.2 17.7-12.6 27.2-12.6h1.1a12.5 12.5 0 0 1-.6 25c-1.5 0-3-.3-4.3-.8zm-51.4 53.8c-3.5 6.2-28.3 2.4-38.7 10.6 1.3-14.3 29.9-23 38.7-10.6zm.2 4.3c-.1.7-.7 6.2-6.1 7.5-2.2.5-4.9.3-8.4-.2-5.4-.7-10.1-2.1-20.2.1 10.2-6.5 29.1-2.3 34.7-7.4zm3.9 16.2c2.7 3.6 5.2 6.9 5.2 11.5 0 7.1-5.8 12.8-12.8 12.8-8 0-12.8-4.8-12.8-12.8 0-5.1 2-8.4 3.9-11.5.9-1.5 1.7-2.9 2.3-4.4 2 .1 3.8.1 5.5-.5 1.8-.5 3.1-1.4 4.1-2.3 1.2 2.7 2.9 5 4.6 7.2zm94.3-4.6c-3.3-25.1-16-47.6-36.1-63.1-1-.7-2-1.5-3-2.1a16.6 16.6 0 0 0 12.9-16.1c0-9.1-7.4-16.6-16.6-16.6h-2c-6.8.3-13.2 2.4-18.7 6.1a32.17 32.17 0 0 1 13.4-10.7l4.7-2-4.8-1.8a36.32 36.32 0 0 0-44 16.3c1.5-5 4.1-9.7 7.9-13.5l3.2-3.3-4.6-.2c-11.2-.4-21.7 4.3-28.9 12.8-5.8 6.9-8.9 15.7-8.5 24.7.3 8.4 3.5 16.4 9.1 22.7-.6 1.1-1.2 2.3-1.8 3.5-2.7-1.6-6.2-4.4-8.5-8.7 0 0-1.2 8.5 6.1 13.9 0 0-9.7 2.3-18.4-5.9 0 0 1.9 11 13.4 11.8-.3.5-10.7 3.3-15.4.8 0 0 5.9 8.6 18.2 4.1l-.3 3.4c-11.3 3.3-19 11.9-19 23.4 0 0 18.5-2.9 28.6.3h.3c-.4.8-1 1.7-1.6 2.7-2 3.3-4.5 7.4-4.5 13.7 0 10.3 6.6 16.9 16.9 16.9 2.8 0 5.4-.7 7.8-1.9-1.7 2.2-3.8 4.4-6.3 6.2-21.6 15.9-58.6 10.5-58.6 10.5 3.5 1.3 6.6 2 6.6 2 20.5 4.1 41.3.7 54.4-9.2 8.5-6.4 13-14.9 13-24.5 0-5.9-2.6-10.3-5.6-14.2-3.8-5-4.6-8-4.6-8 6.5-21.1-19.4-19.8-23.4-18.7 1.1-9.1 4.2-18.4 10.2-26.2a49.53 49.53 0 0 1 33-18.9c13.2-1.7 26.2 1.9 36.7 10a90.06 90.06 0 0 1 34.5 60.4c2.6 20.1-1.5 40-11.6 57.2 3.1-2.3 20.4-24.1 15.9-57.8z" id="path21"/><g id="g24"><path class="st5" d="M921.9 531.3c0-6.3 2.5-10.4 4.5-13.7.6-1 1.1-1.9 1.6-2.7h-.3c-10.1-3.2-28.6-.3-28.6-.3 0-11.4 7.7-20.1 19-23.4l.3-3.4c-12.3 4.5-18.2-4.1-18.2-4.1 4.7 2.5 15.1-.3 15.4-.8-11.6-.8-13.4-11.8-13.4-11.8 8.7 8.2 18.4 5.9 18.4 5.9-7.3-5.4-6.1-13.9-6.1-13.9 2.3 4.3 5.8 7.1 8.5 8.7.6-1.2 1.1-2.3 1.8-3.5-5.6-6.3-8.8-14.3-9.1-22.7-.1-3.2.2-6.4.9-9.5-10.8 12.3-21.6 27-27.2 48.5 0 0-10.4-5.3-16-22.2-1.4 3.1-2.7 6.4-3.8 10a81.2 81.2 0 0 0-3 46.1 79.68 79.68 0 0 0 27.9 45.2c12.7.2 32.3-1.4 45.8-11.4 2.5-1.8 4.6-4 6.3-6.2-2.3 1.2-5 1.9-7.8 1.9-10.2.2-16.9-6.4-16.9-16.7z" id="path22"/><path class="st5" d="M947.3 376.9c1.7 13.8-2.3 24.2-8.9 33.7 4.6-1.8 9.5-2.7 14.6-2.5l4.6.2-3.2 3.3c-3.7 3.8-6.4 8.5-7.9 13.5a36.48 36.48 0 0 1 44-16.3l4.8 1.8-4.7 2c-4.6 2-8.6 4.9-11.9 8.8-.5.6-1 1.3-1.5 1.9 5.5-3.7 11.9-5.9 18.7-6.1h2c2 0 3.9.4 5.7 1-20.8-31.3-56.3-41.3-56.3-41.3z" id="path23"/><path class="st5" d="M1054.5 484.8c-2.9-15.4-10.8-29.9-21.5-40.9-2.5-2.8-5-5.4-7.5-7.7.2 4-.4 9.4-2.3 14-1.7 3.9-3.9 6-4.8 6.7-.1.1-.3.2-.4.3-.8-6.7-2.2-12.9-4.2-18.6a16.7 16.7 0 0 1-12.1 11.2l3 2.1c20.1 15.5 32.8 37.9 36.1 63.1a78.9 78.9 0 0 1-4.2 38.6c15.7-18.5 23.1-43.9 17.9-68.8z" id="path24"/></g></g></g></g></switch></svg>