<svg version="1.0" viewBox="0 0 350 415" xml:space="preserve" xmlns="http://www.w3.org/2000/svg"><switch transform="translate(-784.3 -332.7)"><g><path d="M1035.5 662.4h-27c-16.4 0-21 4.6-21 15.9v50.7c0 18.2 27.6 18.2 27.6 18.2v-61.2h13.8v43c0 18.2 27.6 18.2 27.6 18.2v-69c0-11.2-4.7-15.8-21-15.8zm77.2 0h-27c-16.4 0-21 4.6-21 15.9v50.7c0 18.2 27.6 18.2 27.6 18.2v-23.7h13.8v5.5c0 18.2 27.6 18.2 27.6 18.2v-69c0-11.2-4.6-15.8-21-15.8zm-6.6 37.4h-13.8v-13.8h13.8zm-154.5-37.4v66.6c0 18.2 27.6 18.2 27.6 18.2v-66.7c0-18.1-27.6-18.1-27.6-18.1zm-96.3 18.2c0-18.2-27.6-18.2-27.6-18.2v61.2h-13.8v-42.9c0-18.2-27.6-18.2-27.6-18.2v66.5c0 18.2 27.6 18.2 27.6 18.2h26s27.6 0 27.6-18.2v-5.5h-12.3v-42.9zm61.9 5.5h-13.8v-5.5c0-18.2-27.6-18.2-27.6-18.2v66.6c0 18.2 27.6 18.2 27.6 18.2h13.8s27.6 0 27.6-18.2v-24.8c0-18.1-27.6-18.1-27.6-18.1zm0 37.4h-13.8v-13.8h13.8zm75.1-230.4c-4.6 0-8.4 3.7-8.4 8.4 0 4.6 3.7 8.4 8.4 8.4 4.6 0 8.4-3.7 8.4-8.4 0-4.6-3.7-8.4-8.4-8.4zm-35-11.4a11.6 11.6 0 0 0 23.2 0c0-.7-.1-1.3-.2-1.9 14.9 2.1 18.3-8.9 18.3-8.9-3.7 3.7-14.4 4.1-14.8 3.7 10.7-4.1 9.3-15.1 9.3-15.1-5.9 10.3-15.7 10.9-15.7 10.9 5.3-7.2 1.7-14.9 1.7-14.9-1.7 8.4-8.4 13.5-8.4 13.5 2.2-7-4-13.1-4-13.1.9 5.4-1.7 12.6-6.1 15.1 0-7.5-5.7-9.7-5.7-9.7 5.8 15.2-6.4 13.7-6.4 29.3 0 0 4.5-8.2 9.1-11.3-.2.7-.3 1.6-.3 2.4zm6-4.4a2.9 2.9 0 1 1-2.9 2.9c0-1.6 1.2-2.9 2.9-2.9z"/><path d="M959.3 604.8h.8c61.4 0 111.2-50.3 110.5-111.8v-.7c-.2-21-7-42.2-18.4-59.3-33.1-55.6-82.8-47.8-82.8-100.3 0 0-79.2 38-79.2 111.8 0 0-14.1-7.2-14.1-23.6-2.8 3.7-5.5 7.7-8.1 12.1-11.5 17.2-18.4 38.6-18.4 59.7-1.5 59.7 48 112.1 109.7 112.1zm13.1-16.5c1.5-12.1-1.2-19.5-1.2-19.5-5.8 12.4-17.5 15.4-30.2 19.5-.6-9.3 4.7-15.9 4.7-15.9-36.1 3.5-55.1-6.5-55.1-6.5 19.7 4.6 53.3 3.1 64-12 0 0 .9 6.2-1.7 15.6 12.5-4 24.7-9.7 30.4-21.9 0 0 2.7 7.3 1.2 19.3 6-9.8 14.9-17.7 25.6-22.4 0 0-5.3 9.8-5.5 14 8-8.4 24-8.5 32.4-32 .1 10.4-1.7 20.7-5.1 30.4-11.4 16.4-31.9 15.2-39.2 22.8.2-4.3 5.6-14.2 5.6-14.2a58.54 58.54 0 0 0-25.9 22.8zm-22.6-71.5c-3.8-5-4.6-8-4.6-8 6.5-21.1-19.4-19.8-23.4-18.7 1.1-9.1 4.2-18.4 10.2-26.2a49.53 49.53 0 0 1 33-18.9c13.2-1.7 26.2 1.9 36.7 10 14.3 11 24.7 25.7 30.4 42.4l.1.2c-6.7 27.4-27.1 27.3-39.3 48-2.8-7.1 4.3-19.6 4.3-19.6-14.5 3.9-24.9 17-32.5 29.8-2.5-5.1 1.1-17.2 1.1-17.2-9.8 8.3-18.3 15.3-28.2 20.1 1.7-1 3.3-2 4.7-3.1 8.5-6.4 13-14.9 13-24.5.1-6.1-2.4-10.4-5.5-14.3zm-21.3 15.7c.8 8.2 8.3 11 9.2 11.3-7.5-.3-12-5-12-12.8 0-5.1 2-8.4 3.9-11.5.9-1.5 1.7-2.9 2.3-4.4-2 7.3-4.3 8.7-3.4 17.4zm7.7-21.8c-2.2.5-4.9.3-8.4-.2-5.4-.7-10.1-2.1-20.2.1 10.1-6.5 29-2.2 34.6-7.4-.1.7-.6 6.2-6 7.5zm-32.9-1.1c1.3-14.4 29.9-23.1 38.7-10.6-3.5 6.2-28.3 2.4-38.7 10.6zm59.3-91.5c-11.2 7.2-21.4 21.4-21.4 21.4 2.8-6.9 7.5-12.2 12.1-17.7 7.6-9 19.4-13 30.7-10.8 0 0-8.8-1.1-21.4 7.1zm34.6 2.9h1.1c4.2.2 7.9 2.4 10 5.8-.3-.3-3.6-3.3-13-2.8-12.8.7-25.3 9.6-25.3 9.6 5.5-6.2 17.7-12.6 27.2-12.6zm-70.5 43.4a31.9 31.9 0 0 1 .3-41.1c5.4-6.4 13-10.4 21.2-11.2 0 0-19.3 7.2-24 22.3-4.8 14.9 2.5 30 2.5 30zm-72.9 28.5c0-19.9 6.3-40.3 17.7-57.4l.1-.1.1-.1c.6-1.1 1.3-2.2 2-3.2 4.3 11.1 14 16.1 14.5 16.4l6.4 3.2v-7.2c0-16.1 4-31.7 11.8-46.4 6.3-11.9 15.2-23.3 26.3-33.8 12.7-12 25.5-20.2 32.7-24.4 2.4 26.3 18.3 37.1 36.5 49.5 15.2 10.4 32.5 22.1 46.6 45.9l.1.1.1.1c11.2 16.9 17.5 37.1 17.7 56.9v.8c.4 28.5-10.5 55.4-30.6 75.7-2.5 2.5-5.1 4.9-7.8 7.2 8.5-14 13.4-30.9 13.4-49.1 0-3.8-.2-7.8-.7-12-3.3-25.1-16-47.6-36.1-63.1-1-.7-2-1.5-3-2.1a16.6 16.6 0 0 0 12.9-16.1c0-9.1-7.4-16.6-16.6-16.6h-2c-6.8.3-13.2 2.4-18.7 6.1a32.17 32.17 0 0 1 13.4-10.7l4.7-2-4.8-1.8a36.32 36.32 0 0 0-44 16.3c1.5-5 4.1-9.7 7.9-13.5l3.2-3.3-4.6-.2c-11.2-.4-21.7 4.3-28.9 12.8-5.8 6.9-8.9 15.7-8.5 24.7.3 8.4 3.5 16.4 9.1 22.7-.6 1.1-1.2 2.3-1.8 3.5-2.7-1.6-6.2-4.4-8.5-8.7 0 0-1.2 8.5 6.1 13.9 0 0-9.7 2.3-18.4-5.9 0 0 1.9 11 13.4 11.8-.3.5-10.7 3.3-15.4.8 0 0 5.9 8.6 18.2 4.1l-.3 3.4c-11.3 3.3-19 11.9-19 23.4 0 0 18.5-2.9 28.6.3h.3c-.4.8-1 1.7-1.6 2.7-2 3.3-4.5 7.4-4.5 13.7 0 10.3 6.6 16.9 16.9 16.9 2.8 0 5.4-.7 7.8-1.9-.2.2-.4.5-.5.7-2 2.4-4.5 4.6-7.5 6.7-9 6.1-21.1 9.5-34.1 9.5-11.4 0-22.2-2.6-30.8-7.4-13.3-18.7-20.3-40.7-19.8-62.8Z"/></g></switch></svg>