<svg version="1.0" id="Слой_1" x="0" y="0" viewBox="0 0 225 275" xml:space="preserve" xmlns="http://www.w3.org/2000/svg"><style type="text/css" id="style1">.st0{fill:#fff}</style><switch id="switch17" transform="translate(-847.57 -330.7)"><g id="g17"><g id="g16"><path class="st0" d="M942 499c-8.7-12.5-37.4-3.8-38.7 10.6 10.4-8.2 35.2-4.4 38.7-10.6z" id="path6"/><path class="st0" d="M924.1 434.3c4.7-15.1 24-22.3 24-22.3-8.2.9-15.7 4.8-21.2 11.2a32.03 32.03 0 0 0-.3 41.1c.1.1-7.2-15-2.5-30z" id="path7"/><path class="st0" d="M928.5 532.5c-.9-8.7 1.4-10.1 3.4-17.4-.6 1.5-1.4 2.9-2.3 4.4-1.9 3.1-3.9 6.4-3.9 11.5 0 7.8 4.5 12.5 12 12.8-1-.4-8.4-3.2-9.2-11.3z" id="path8"/><path class="st0" d="M927.8 510.5c3.5.5 6.2.7 8.4.2 5.3-1.3 5.9-6.7 6.1-7.5-5.7 5.2-24.5.9-34.6 7.4 10-2.2 14.7-.9 20.1-.1z" id="path9"/><path class="st0" d="M962.6 418.1c12.7-8.2 21.4-7 21.4-7a32.15 32.15 0 0 0-30.7 10.8c-4.6 5.4-9.3 10.7-12.1 17.7 0-.1 10.1-14.3 21.4-21.5z" id="path10"/><path class="st0" d="M969.9 433.6s12.5-9 25.3-9.6c9.4-.5 12.7 2.5 13 2.8-2.1-3.3-5.8-5.6-10-5.8h-1.1c-9.4 0-21.6 6.4-27.2 12.6z" id="path11"/><path class="st0" d="M964.7 555.7c7.6-12.8 18.1-25.8 32.5-29.8 0 0-7.2 12.5-4.3 19.6 12.2-20.7 32.6-20.6 39.3-48l-.1-.2a89.93 89.93 0 0 0-30.4-42.4 49.35 49.35 0 0 0-36.7-10 49.3 49.3 0 0 0-33 18.9c-6.1 7.8-9.2 17.1-10.2 26.2 4-1.1 29.9-2.4 23.4 18.7 0 0 .8 3 4.6 8 3 3.9 5.6 8.2 5.6 14.2 0 9.6-4.5 18.1-13 24.5-1.5 1.1-3.1 2.1-4.7 3.1 9.8-4.7 18.3-11.7 28.2-20.1 0 .1-3.6 12.3-1.2 17.3zm27.6-45.8c-4.6 0-8.4-3.7-8.4-8.4 0-4.6 3.7-8.4 8.4-8.4 4.6 0 8.4 3.7 8.4 8.4 0 4.6-3.7 8.4-8.4 8.4zm-35-28.2c0-.8.1-1.7.3-2.5-4.6 3.1-9.1 11.3-9.1 11.3 0-15.7 12.2-14.1 6.4-29.3 0 0 5.7 2.2 5.7 9.7 4.3-2.5 7-9.7 6.1-15.1 0 0 6.2 6.1 4 13.1 0 0 6.7-5.1 8.4-13.5 0 0 3.6 7.7-1.7 14.9 0 0 9.9-.6 15.7-10.9 0 0 1.4 11-9.3 15.1.4.4 11.1 0 14.8-3.7 0 0-3.5 11-18.3 8.9.1.6.2 1.3.2 1.9a11.6 11.6 0 0 1-23.2.1z" id="path12"/><path class="st0" d="M945.7 572.5s-5.2 6.5-4.7 15.9c12.6-4.1 24.4-7.1 30.2-19.5 0 0 2.8 7.4 1.2 19.5 6.1-9.9 15-18 25.9-22.7 0 0-5.3 9.9-5.6 14.2 7.3-7.7 27.9-6.4 39.2-22.8 3.4-9.7 5.2-20 5.1-30.4-8.4 23.5-24.3 23.6-32.4 32 .2-4.2 5.5-14 5.5-14a57.53 57.53 0 0 0-25.6 22.4c1.5-12-1.2-19.3-1.2-19.3-5.7 12.3-18 17.9-30.4 21.9 2.6-9.5 1.7-15.6 1.7-15.6-10.7 15.1-44.3 16.6-64 12 0-.1 17.7 9.8 55.1 6.4z" id="path13"/><path class="st0" d="M963.3 477.3a2.9 2.9 0 1 0 0 5.8 2.9 2.9 0 0 0 0-5.8z" id="path14"/><path class="st0" d="M960 604.8c32.2 0 61.3-13.8 81.5-35.9l.1-.1c18.3-20 29.4-46.7 29-75.8v-.7c-.2-21-7-42.2-18.4-59.3-33.1-55.6-82.8-47.8-82.8-100.3 0 0-79.2 38-79.2 111.8 0 0-14.1-7.2-14.1-23.6-2.8 3.7-5.5 7.7-8.1 12.1-11.5 17.2-18.4 38.6-18.4 59.7-.6 25.3 8 49.3 22.8 68.5.1.1.2.3.3.4 20 26.2 51.7 43.4 87.3 43.2zm-84.5-48.3c8.2 4.1 18.1 6.3 28.6 6.3 12.9 0 25-3.4 34.1-9.5 3-2 5.5-4.3 7.5-6.7.2-.2.4-.5.5-.7-2.3 1.2-5 1.9-7.8 1.9-10.3 0-16.9-6.6-16.9-16.9 0-6.3 2.5-10.4 4.5-13.7.6-1 1.1-1.9 1.6-2.7h-.3c-10.1-3.2-28.6-.3-28.6-.3 0-11.4 7.7-20.1 19-23.4l.3-3.4c-12.3 4.5-18.2-4.1-18.2-4.1 4.7 2.5 15.1-.3 15.4-.8-11.6-.8-13.4-11.8-13.4-11.8 8.7 8.2 18.4 5.9 18.4 5.9-7.3-5.4-6.1-13.9-6.1-13.9 2.3 4.3 5.8 7.1 8.5 8.7.6-1.2 1.1-2.3 1.8-3.5-5.6-6.3-8.8-14.3-9.1-22.7-.3-9 2.7-17.8 8.5-24.7 7.2-8.5 17.7-13.2 28.9-12.8l4.6.2-3.2 3.3c-3.7 3.8-6.4 8.5-7.9 13.5a36.48 36.48 0 0 1 44-16.3l4.8 1.8-4.7 2c-4.6 2-8.6 4.9-11.9 8.8-.5.6-1 1.3-1.5 1.9 5.5-3.7 11.9-5.9 18.7-6.1h2c9.1 0 16.6 7.4 16.6 16.6 0 7.9-5.5 14.5-12.9 16.1l3 2.1c20.1 15.5 32.8 37.9 36.1 63.1.6 4.2.8 8.2.7 12 0 17.1-4.4 33-11.9 46.5-.2.2-.4.3-.4.3a103.96 103.96 0 0 1-68.9 25.7h-.8c-28 0-54.4-11.2-74.3-31.6-1.6-1.7-3.2-3.4-4.7-5.2-.9-1.1-3.1-3.6-4.6-5.9z" id="path15"/><path class="st0" d="M959.3 604.8Z" id="path16"/></g></g></switch></svg>